# xmcd
#
# Track frame offsets:
#	150
#	17369
#	37065
#	54949
#	72462
#	89482
#	106137
#	124597
#	142716
#	159685
#
# Disc length: 2330 seconds
#
# Revision: 1
# Processed by: cddbd v1.5.2PL0 Copyright (c) Steve Scherf et al.
# Submitted via: audiograbber 1.83.01
#
DISCID=7b09180a
DTITLE=Willie Nelson - Without A Song
DYEAR=1984
DGENRE=Country
TTITLE0=Without A Song
TTITLE1=Once In A While
TTITLE2=Autumn Leaves
TTITLE3=I Can't Begin To Tell You
TTITLE4=Harbor Lights
TTITLE5=Golden Earrings
TTITLE6=You'll Never Know
TTITLE7=To Each His Own
TTITLE8=As Time Goes By
TTITLE9=Dreamer's Holiday
EXTD=
EXTT0=
EXTT1=
EXTT2=
EXTT3=
EXTT4=
EXTT5=
EXTT6=
EXTT7=
EXTT8=
EXTT9=
PLAYORDER=
